<svg xmlns="http://www.w3.org/2000/svg" width="25" height="25.482" viewBox="0 0 25 25.482">
  <g id="Groupe_1957" data-name="Groupe 1957" transform="translate(-650.334 -3969.808)">
    <g id="Rectangle" transform="translate(650.334 3969.808)" fill="#612840" opacity="0.21">
      <path d="M 17 23.54166984558105 L 8 23.54166984558105 C 4.392910003662109 23.54166984558105 1.458330035209656 20.60708999633789 1.458330035209656 17 L 1.458330035209656 8 C 1.458330035209656 4.392910003662109 4.392910003662109 1.458330035209656 8 1.458330035209656 L 17 1.458330035209656 C 20.60708999633789 1.458330035209656 23.54166984558105 4.392910003662109 23.54166984558105 8 L 23.54166984558105 17 C 23.54166984558105 20.60708999633789 20.60708999633789 23.54166984558105 17 23.54166984558105 Z" stroke="none"/>
      <path d="M 8 2.916669845581055 C 5.197040557861328 2.916669845581055 2.916669845581055 5.197040557861328 2.916669845581055 8 L 2.916669845581055 17 C 2.916669845581055 19.80295944213867 5.197040557861328 22.08333015441895 8 22.08333015441895 L 17 22.08333015441895 C 19.80295944213867 22.08333015441895 22.08333015441895 19.80295944213867 22.08333015441895 17 L 22.08333015441895 8 C 22.08333015441895 5.197040557861328 19.80295944213867 2.916669845581055 17 2.916669845581055 L 8 2.916669845581055 M 8 0 L 17 0 C 21.41827964782715 0 25 3.581720352172852 25 8 L 25 17 C 25 21.41827964782715 21.41827964782715 25 17 25 L 8 25 C 3.581720352172852 25 0 21.41827964782715 0 17 L 0 8 C 0 3.581720352172852 3.581720352172852 0 8 0 Z" stroke="none" fill="#fff"/>
    </g>
    <text id="While_most_people_en" data-name="While most people en" transform="translate(657.334 3989.29)" fill="#612840" font-size="18" font-family="Poppins-Medium, Poppins" font-weight="500"><tspan x="0" y="0">-</tspan></text>
  </g>
</svg>
