<svg xmlns="http://www.w3.org/2000/svg" width="42.703" height="42.703" viewBox="0 0 42.703 42.703">
  <g id="Groupe_1917" data-name="Groupe 1917" transform="translate(-316.199 -2897.799)">
    <path id="Tracé_17370" data-name="Tracé 17370" d="M33.362,0H9.341A9.341,9.341,0,0,0,0,9.341v24.02A9.341,9.341,0,0,0,9.341,42.7h24.02A9.341,9.341,0,0,0,42.7,33.362V9.341A9.341,9.341,0,0,0,33.362,0Z" transform="translate(316.199 2897.799)" fill="#73af00"/>
    <rect id="Rectangle_497" data-name="Rectangle 497" width="24.651" height="24.651" transform="translate(337.551 2901.719) rotate(45)" fill="#ffe15a"/>
    <ellipse id="Ellipse_39" data-name="Ellipse 39" cx="7.224" cy="7.224" rx="7.224" ry="7.224" transform="translate(330.326 2911.926)" fill="#41479b"/>
    <path id="Tracé_17371" data-name="Tracé 17371" d="M173.122,211.609a7.172,7.172,0,0,0-.778,1.849c4-.3,9.929.819,13.7,4.478a7.174,7.174,0,0,0,.47-2A20.633,20.633,0,0,0,173.122,211.609Z" transform="translate(158.229 2703.846)" fill="#f5f5f5"/>
    <path id="Tracé_17372" data-name="Tracé 17372" d="M248.188,284.944l.192.577.608,0a.082.082,0,0,1,.048.148l-.489.361.183.58a.082.082,0,0,1-.126.091l-.495-.354-.495.354a.082.082,0,0,1-.126-.091l.183-.58-.489-.361a.082.082,0,0,1,.048-.148l.608,0,.192-.577A.082.082,0,0,1,248.188,284.944Z" transform="translate(89.662 2636.672)" fill="#f5f5f5"/>
    <path id="Tracé_17373" data-name="Tracé 17373" d="M283.011,303.183l.083.248.262,0a.035.035,0,0,1,.021.064l-.211.155.079.249a.035.035,0,0,1-.054.039l-.213-.152-.213.152a.035.035,0,0,1-.054-.039l.079-.249-.211-.155a.035.035,0,0,1,.021-.064l.262,0,.083-.248A.035.035,0,0,1,283.011,303.183Z" transform="translate(57.202 2619.924)" fill="#f5f5f5"/>
    <path id="Tracé_17374" data-name="Tracé 17374" d="M242.43,272.158l.083.248.262,0a.035.035,0,0,1,.021.064l-.211.155.079.249a.035.035,0,0,1-.054.039l-.213-.152-.213.152a.035.035,0,0,1-.054-.039l.079-.249-.211-.155a.035.035,0,0,1,.021-.064l.262,0,.083-.248A.035.035,0,0,1,242.43,272.158Z" transform="translate(94.398 2648.361)" fill="#f5f5f5"/>
    <path id="Tracé_17375" data-name="Tracé 17375" d="M187.471,268.549l.083.248.262,0a.035.035,0,0,1,.021.064l-.211.155.079.249a.035.035,0,0,1-.054.039l-.213-.152-.213.152a.035.035,0,0,1-.054-.039l.079-.249-.211-.155a.035.035,0,0,1,.021-.064l.262,0,.083-.248A.035.035,0,0,1,187.471,268.549Z" transform="translate(144.773 2651.67)" fill="#f5f5f5"/>
    <path id="Tracé_17376" data-name="Tracé 17376" d="M233.448,302.156l.083.248.262,0a.035.035,0,0,1,.021.064l-.211.155.079.249a.035.035,0,0,1-.054.039l-.213-.152-.213.152a.035.035,0,0,1-.054-.039l.079-.249-.211-.155a.035.035,0,0,1,.021-.064l.262,0,.083-.248A.035.035,0,0,1,233.448,302.156Z" transform="translate(102.631 2620.865)" fill="#f5f5f5"/>
    <path id="Tracé_17377" data-name="Tracé 17377" d="M209.046,266.52l.068.2.214,0a.029.029,0,0,1,.017.052l-.172.127.065.2a.029.029,0,0,1-.044.032l-.174-.124-.174.124a.029.029,0,0,1-.044-.032l.065-.2-.172-.127a.029.029,0,0,1,.017-.052l.214,0,.068-.2A.029.029,0,0,1,209.046,266.52Z" transform="translate(124.923 2653.525)" fill="#f5f5f5"/>
    <path id="Tracé_17378" data-name="Tracé 17378" d="M285.1,216.225l.085.254.268,0a.036.036,0,0,1,.021.065l-.215.159.081.255a.036.036,0,0,1-.055.04l-.218-.156-.218.156a.036.036,0,0,1-.055-.04l.081-.255-.215-.159a.036.036,0,0,1,.021-.065l.268,0,.085-.254A.036.036,0,0,1,285.1,216.225Z" transform="translate(55.293 2699.631)" fill="#f5f5f5"/>
    <path id="Tracé_17379" data-name="Tracé 17379" d="M191.9,251.632l.068.2.214,0a.029.029,0,0,1,.017.052l-.172.127.065.2a.029.029,0,0,1-.044.032l-.174-.124-.174.124a.029.029,0,0,1-.044-.032l.065-.2-.172-.127a.029.029,0,0,1,.017-.052l.214,0,.068-.2A.029.029,0,0,1,191.9,251.632Z" transform="translate(140.638 2667.172)" fill="#f5f5f5"/>
    <path id="Tracé_17380" data-name="Tracé 17380" d="M202.225,285.822l.1.307.324,0a.044.044,0,0,1,.026.079l-.261.193.1.309a.044.044,0,0,1-.067.049l-.264-.189-.264.189a.044.044,0,0,1-.067-.049l.1-.309-.261-.193a.044.044,0,0,1,.026-.079l.324,0,.1-.307A.044.044,0,0,1,202.225,285.822Z" transform="translate(131.348 2635.843)" fill="#f5f5f5"/>
    <path id="Tracé_17381" data-name="Tracé 17381" d="M299.892,304.015l.064.193.2,0a.027.027,0,0,1,.016.05l-.164.121.061.194a.027.027,0,0,1-.042.031l-.166-.119-.166.119a.028.028,0,0,1-.042-.031l.061-.194-.164-.121a.027.027,0,0,1,.016-.05l.2,0,.064-.193A.028.028,0,0,1,299.892,304.015Z" transform="translate(41.639 2619.157)" fill="#f5f5f5"/>
    <path id="Tracé_17382" data-name="Tracé 17382" d="M307.364,286.256l.083.248.262,0a.035.035,0,0,1,.021.064l-.211.155.079.25a.035.035,0,0,1-.054.039l-.213-.152-.213.152a.035.035,0,0,1-.054-.039l.079-.25-.211-.155a.035.035,0,0,1,.021-.064l.262,0,.083-.248A.035.035,0,0,1,307.364,286.256Z" transform="translate(34.88 2635.439)" fill="#f5f5f5"/>
  </g>
</svg>
