<svg id="Layer_2" data-name="Layer 2" xmlns="http://www.w3.org/2000/svg" xmlns:xlink="http://www.w3.org/1999/xlink" width="17.631" height="17.631" viewBox="0 0 17.631 17.631">
  <defs>
    <clipPath id="clip-path">
      <rect id="Rectangle_533" data-name="Rectangle 533" width="17.631" height="17.631" fill="#fff" opacity="0"/>
    </clipPath>
  </defs>
  <g id="pin">
    <g id="Groupe_de_masques_68" data-name="Groupe de masques 68" clip-path="url(#clip-path)">
      <g id="Layer_2-2" data-name="Layer 2">
        <g id="phone-call">
          <rect id="Rectangle_534" data-name="Rectangle 534" width="17.631" height="17.631" fill="#fff" opacity="0"/>
          <path id="Tracé_17455" data-name="Tracé 17455" d="M13.218,7.711a2.2,2.2,0,0,1,2.2,2.2.735.735,0,1,0,1.469,0,3.673,3.673,0,0,0-3.673-3.673.735.735,0,1,0,0,1.469Z" transform="translate(-3.668 -1.834)" fill="#fff"/>
          <path id="Tracé_17456" data-name="Tracé 17456" d="M13.218,3.55a5.142,5.142,0,0,1,5.142,5.142.735.735,0,1,0,1.469,0,6.612,6.612,0,0,0-6.612-6.612.735.735,0,0,0,0,1.469Z" transform="translate(-3.668 -0.611)" fill="#fff"/>
          <path id="Tracé_17457" data-name="Tracé 17457" d="M16.59,12.3a.735.735,0,0,0-.529-.478l-4.408-1.006a.735.735,0,0,0-.676.191c-.1.1-.11.1-.588,1.014A7.28,7.28,0,0,1,6.812,8.428c.933-.47.94-.47,1.036-.58a.735.735,0,0,0,.191-.676L7.032,2.815a.735.735,0,0,0-.478-.529,2.784,2.784,0,0,0-.529-.132,2.894,2.894,0,0,0-.566-.073A3.379,3.379,0,0,0,2.081,5.46,11.328,11.328,0,0,0,13.394,16.773a3.379,3.379,0,0,0,3.379-3.379,3.5,3.5,0,0,0-.044-.558A3.188,3.188,0,0,0,16.59,12.3Z" transform="translate(-0.611 -0.611)" fill="#fff"/>
        </g>
      </g>
    </g>
  </g>
</svg>
