<svg xmlns="http://www.w3.org/2000/svg" width="42.703" height="42.703" viewBox="0 0 42.703 42.703">
  <g id="Groupe_1914" data-name="Groupe 1914" transform="translate(-889.874 -2897.799)">
    <path id="Tracé_17391" data-name="Tracé 17391" d="M33.362,42.7H9.341A9.341,9.341,0,0,1,0,33.362V9.341A9.341,9.341,0,0,1,9.341,0h24.02A9.341,9.341,0,0,1,42.7,9.341v24.02A9.341,9.341,0,0,1,33.362,42.7Z" transform="translate(889.874 2897.799)" fill="#41479b"/>
    <path id="Tracé_17392" data-name="Tracé 17392" d="M314.4,305.059v-2.051l-6.624-4.34H314.4v-2.248h-17.98V314.4h2.247v-13.64l14.256,9.34a9.292,9.292,0,0,0,1.147-2.577" transform="translate(618.176 2626.101)" fill="#f5f5f5"/>
    <path id="Tracé_17393" data-name="Tracé 17393" d="M.628,308.433a9.318,9.318,0,0,0,.848,1.669l14.256-9.34V314.4H17.98v-17.98H0v2.248H6.624L0,303.008v2.052a9.439,9.439,0,0,0,.06,1.062" transform="translate(889.874 2626.101)" fill="#f5f5f5"/>
    <path id="Tracé_17394" data-name="Tracé 17394" d="M0,9.659v1.734l6.624,4.34H0V17.98H17.98V0H15.733V13.64L1.476,4.3A9.289,9.289,0,0,0,.26,7.148" transform="translate(889.874 2897.799)" fill="#f5f5f5"/>
    <path id="Tracé_17395" data-name="Tracé 17395" d="M313.761,5.936a9.312,9.312,0,0,0-.836-1.636L298.669,13.64V0h-2.247V17.98H314.4V15.733h-6.624l6.624-4.34V9.341a9.441,9.441,0,0,0-.065-1.1" transform="translate(618.176 2897.799)" fill="#f5f5f5"/>
    <path id="Tracé_17396" data-name="Tracé 17396" d="M24.723,0H17.98V17.98H0v6.743H17.98V42.7h6.743V24.723H42.7V17.98H24.723Z" transform="translate(889.874 2897.799)" fill="#ff4b55"/>
    <path id="Tracé_17397" data-name="Tracé 17397" d="M12.207,323.368.725,330.821a9.282,9.282,0,0,0,.568,2.311l15.043-9.765H12.207Z" transform="translate(889.209 2601.4)" fill="#ff4b55"/>
    <path id="Tracé_17398" data-name="Tracé 17398" d="M344.465,323.368l13.644,8.856a9.355,9.355,0,0,0,.329-2.465h0l-9.845-6.391Z" transform="translate(574.139 2601.4)" fill="#ff4b55"/>
    <path id="Tracé_17399" data-name="Tracé 17399" d="M13.485,94.285.26,85.7A9.361,9.361,0,0,0,0,87.894v.318l9.357,6.074Z" transform="translate(889.874 2819.246)" fill="#ff4b55"/>
    <path id="Tracé_17400" data-name="Tracé 17400" d="M327.5,80.967l11.54-7.491a9.282,9.282,0,0,0-.576-2.306l-15.092,9.8Z" transform="translate(593.476 2832.564)" fill="#ff4b55"/>
  </g>
</svg>
