<svg xmlns="http://www.w3.org/2000/svg" width="26" height="26" viewBox="0 0 26 26">
  <g id="Layer_2" data-name="Layer 2" transform="translate(0.235 0.235)">
    <g id="briefcase" transform="translate(-0.313 -0.313)">
      <rect id="Rectangle_536" data-name="Rectangle 536" width="26" height="26" transform="translate(0.078 0.078)" fill="#fff" opacity="0"/>
      <path id="Tracé_17459" data-name="Tracé 17459" d="M7,22.208H17.671V7.268H16.6v-1.6A2.668,2.668,0,0,0,13.936,3h-3.2A2.668,2.668,0,0,0,8.067,5.668v1.6H7Zm3.2-16.54a.534.534,0,0,1,.534-.534h3.2a.534.534,0,0,1,.534.534v1.6H10.2Z" transform="translate(0.742 0.474)" fill="#fff"/>
      <path id="Tracé_17460" data-name="Tracé 17460" d="M19,7V21.939a3.2,3.2,0,0,0,3.2-3.2V10.2A3.2,3.2,0,0,0,19,7Z" transform="translate(1.547 0.742)" fill="#fff"/>
      <path id="Tracé_17461" data-name="Tracé 17461" d="M5.2,7A3.2,3.2,0,0,0,2,10.2v8.537a3.2,3.2,0,0,0,3.2,3.2Z" transform="translate(0.407 0.742)" fill="#fff"/>
    </g>
  </g>
</svg>
