<svg xmlns="http://www.w3.org/2000/svg" width="28" height="28" viewBox="0 0 28 28">
  <g id="Layer_2" data-name="Layer 2" transform="translate(0.008 0.008)">
    <g id="attach">
      <rect id="Rectangle_541" data-name="Rectangle 541" width="28" height="28" transform="translate(-0.008 -0.008)" fill="#fff" opacity="0"/>
      <path id="Tracé_17468" data-name="Tracé 17468" d="M10.336,24.154a7.264,7.264,0,0,1-5.165-2.192,7,7,0,0,1-.257-9.9L13.5,3.4a4.792,4.792,0,0,1,3.5-1.4,5.224,5.224,0,0,1,3.719,1.574,5.084,5.084,0,0,1,.175,7.147L12.26,19.385a2.962,2.962,0,0,1-2.11.874A3.171,3.171,0,0,1,7.876,19.3a3.125,3.125,0,0,1-.093-4.4l7.964-8a1.166,1.166,0,0,1,1.6,1.644l-7.964,8a.793.793,0,0,0,.093,1.108.909.909,0,0,0,.618.268.653.653,0,0,0,.466-.187l8.617-8.663A2.752,2.752,0,0,0,19,5.218a2.775,2.775,0,0,0-3.813-.175L6.57,13.66a4.664,4.664,0,0,0,.257,6.611,4.92,4.92,0,0,0,3.5,1.5,4.279,4.279,0,0,0,3.043-1.236l8.617-8.663A1.167,1.167,0,1,1,23.64,13.52l-8.617,8.663a6.588,6.588,0,0,1-4.687,1.97Z" transform="translate(0.496 0.332)" fill="#fff"/>
    </g>
  </g>
</svg>
