<svg xmlns="http://www.w3.org/2000/svg" width="42.703" height="42.703" viewBox="0 0 42.703 42.703">
  <g id="Groupe_1915" data-name="Groupe 1915" transform="translate(-698.648 -2897.799)">
    <path id="Tracé_17386" data-name="Tracé 17386" d="M33.362,0H9.341A9.341,9.341,0,0,0,0,9.341v4.893H42.7V9.341A9.341,9.341,0,0,0,33.362,0Z" transform="translate(698.648 2897.799)" fill="#ff4b55"/>
    <path id="Tracé_17387" data-name="Tracé 17387" d="M0,346.226a9.341,9.341,0,0,0,9.341,9.341h24.02a9.341,9.341,0,0,0,9.341-9.341v-4.893H0Z" transform="translate(698.648 2584.935)" fill="#41479b"/>
    <rect id="Rectangle_498" data-name="Rectangle 498" width="42.703" height="14.235" transform="translate(698.648 2912.033)" fill="#f5f5f5"/>
    <path id="Tracé_17388" data-name="Tracé 17388" d="M194.251,188.631a5.619,5.619,0,1,0,5.619,5.619A5.619,5.619,0,0,0,194.251,188.631Zm0,9.856a4.238,4.238,0,1,1,4.238-4.238A4.237,4.237,0,0,1,194.251,198.487Z" transform="translate(525.749 2724.9)" fill="#ff4b55"/>
    <ellipse id="Ellipse_40" data-name="Ellipse 40" cx="1.949" cy="1.949" rx="1.949" ry="1.949" transform="translate(718.051 2917.201)" fill="#41479b"/>
    <path id="Tracé_17389" data-name="Tracé 17389" d="M238.907,237.294l.314.942.993.008a.134.134,0,0,1,.078.241l-.8.59.3.947a.134.134,0,0,1-.205.149l-.808-.578-.808.577a.134.134,0,0,1-.205-.149l.3-.947-.8-.59a.134.134,0,0,1,.078-.241l.993-.008.314-.942A.134.134,0,0,1,238.907,237.294Z" transform="translate(481.22 2680.381)" fill="#ffe15a"/>
    <path id="Tracé_17390" data-name="Tracé 17390" d="M219.015,220.726s.111-.515-.437.1a2.539,2.539,0,0,0-.007-.321,1.349,1.349,0,0,0,.235-1.025s-.086-.52-.368.256a2.019,2.019,0,0,0-.159-.356,1.157,1.157,0,0,0-.043-.884s-.191-.416-.25.3a1.277,1.277,0,0,0-.258-.291.859.859,0,0,0-.226-.634s-.23-.257-.114.271c0,0-.21-.17-.277-.15a1.076,1.076,0,0,0-.475-.5s-.294-.161.043.259c0,0-.3-.118-.294-.05s.148.193.266.248c0,0-.437.045-.257.143a1.069,1.069,0,0,0,.709.006.514.514,0,0,0,.129.227s-.52-.1-.379.055a1.287,1.287,0,0,0,.775.243.749.749,0,0,0,.087.346s-.62-.331-.5-.078a1.743,1.743,0,0,0,.864.6.9.9,0,0,0,.007.354s-.588-.556-.534-.239a2,2,0,0,0,.745.929.9.9,0,0,0-.086.262s-.343-.733-.409-.419a1.958,1.958,0,0,0,.38,1.17.915.915,0,0,0-.215.261s-.075-.806-.244-.532a2.039,2.039,0,0,0-.075,1.137.912.912,0,0,0-.3.156s.249-.77-.014-.585a2.043,2.043,0,0,0-.5,1.075.853.853,0,0,0-.414.115s.356-.727.069-.581a2.088,2.088,0,0,0-.642.958l-.53.3-.334-.194,0-.005-1.16-.972.023.318-.582-1.042-.072.354L213,221.167l-.169.17.065-1.074-.22.119.4-.8-.188.053.495-.474-.261.022.626-.284-.229-.035.611-.309-.263-.013.792-.274-.145-.127.685-.2-.821-.063.234-.288-.627.321.09-.433-.548.564.1-.4-.513.51.033-.385-.507.859-.065-.384-.421.964-.116-.42-.188,1.2-.157-.178.206,1.153-.262-.2.48,1.036a3.725,3.725,0,0,0-.393-.153c-.044,0,.834.892.834.892l-.458-.049.885.622-.329.081.736.286-.18.139,1.524.109s.147.122.347.264l-.256.143a.215.215,0,0,1-.187.009c-.145-.061-.354-.146-.455-.187a.454.454,0,0,0,.461.444,1.477,1.477,0,0,0,.673-.253,1.506,1.506,0,0,0,.7.278.451.451,0,0,0,.451-.444c-.1.04-.3.126-.445.187a.206.206,0,0,1-.183-.009l-.283-.162c.12-.082.221-.156.292-.21.111.087.429.241,1.139-.026,0,0,.471-.237-.354-.275a2.411,2.411,0,0,0,.256-.219c.135.07.47.152,1.106-.2,0,0,.433-.3-.39-.222a2.648,2.648,0,0,0,.2-.216c.142.016.492-.022.956-.616,0,0,.279-.447-.446-.051a2.013,2.013,0,0,0,.116-.373A1.348,1.348,0,0,0,219.015,220.726Z" transform="translate(504.672 2698.47)" fill="#64c86e"/>
  </g>
</svg>
