<svg xmlns="http://www.w3.org/2000/svg" width="215.05" height="193.114" viewBox="0 0 215.05 193.114">
  <g id="Groupe_1955" data-name="Groupe 1955" transform="translate(-146.25 -2558.81)">
    <path id="Path" d="M2.68,4.24A40.208,40.208,0,0,1,.558.165.3.3,0,0,0,.166.027.3.3,0,0,0,.027.419C.673,1.8,1.388,3.206,2.173,4.542a.265.265,0,0,0,.254.138.328.328,0,0,0,.138-.046A.3.3,0,0,0,2.68,4.24" transform="translate(151.345 2720.568)" fill="#d8d5db"/>
    <path id="Path-2" data-name="Path" d="M.976.219A.3.3,0,0,0,.607.012.325.325,0,0,0,.4.355c.415,1.523.877,3.02,1.384,4.448a.271.271,0,0,0,.277.207.162.162,0,0,0,.092-.025.27.27,0,0,0,.162-.366c-.508-1.428-.946-2.9-1.338-4.4" transform="translate(147.835 2711.854)" fill="#d8d5db"/>
    <path id="Path-3" data-name="Path" d="M1.75.254A.267.267,0,0,0,1.45,0,.286.286,0,0,0,1.2.325c.162,1.564.369,3.108.623,4.607a.3.3,0,0,0,.3.228h.046A.267.267,0,0,0,2.4,4.84c-.254-1.5-.485-3.018-.646-4.586" transform="translate(145.424 2702.74)" fill="#d8d5db"/>
    <path id="Path-4" data-name="Path" d="M2.4,2.352c0-.668,0-1.359.023-2.052A.289.289,0,0,0,1.848.276c-.023.691-.023,1.384-.023,2.076,0,.875.023,1.728.046,2.58a.3.3,0,0,0,.277.276h.023a.3.3,0,0,0,.277-.3C2.425,4.057,2.4,3.2,2.4,2.352" transform="translate(144.425 2693.503)" fill="#d8d5db"/>
    <path id="Path-5" data-name="Path" d="M2.152.009a.251.251,0,0,0-.323.233c-.208,1.566-.369,3.11-.508,4.63a.286.286,0,0,0,.277.3h.023A.277.277,0,0,0,1.9,4.916c.138-1.518.3-3.061.508-4.582A.277.277,0,0,0,2.152.009" transform="translate(145.205 2684.279)" fill="#d8d5db"/>
    <path id="Path-6" data-name="Path" d="M2.14,0a.309.309,0,0,0-.346.233c-.323,1.52-.646,3.038-.923,4.538a.327.327,0,0,0,.231.346h.069a.274.274,0,0,0,.277-.23c.277-1.5.577-3.018.923-4.538A.308.308,0,0,0,2.14,0" transform="translate(146.879 2675.164)" fill="#d8d5db"/>
    <path id="Path-7" data-name="Path" d="M2.125.012a.283.283,0,0,0-.346.205C1.317,1.693.879,3.188.487,4.665a.294.294,0,0,0,.208.343c.023.023.046.023.092.023a.319.319,0,0,0,.277-.207C1.433,3.352,1.871,1.852,2.333.38A.3.3,0,0,0,2.125.012" transform="translate(149.293 2666.219)" fill="#d8d5db"/>
    <path id="Path-8" data-name="Path" d="M2.146.015a.287.287,0,0,0-.369.161C1.223,1.628.692,3.1.208,4.551a.291.291,0,0,0,.162.371H.461a.281.281,0,0,0,.277-.184C1.246,3.286,1.776,1.812,2.307.384A.3.3,0,0,0,2.146.015" transform="translate(152.295 2657.462)" fill="#d8d5db"/>
    <path id="Path-9" data-name="Path" d="M4.848,1.15c-1.569.228-3.092.461-4.591.668A.285.285,0,0,0,0,2.138a.319.319,0,0,0,.3.256H.326c1.5-.207,3.045-.44,4.614-.691a.288.288,0,0,0,.231-.325.271.271,0,0,0-.323-.228" transform="translate(231.958 2749.53)" fill="#d8d5db"/>
    <path id="Path-10" data-name="Path" d="M4.857,1.776C3.334,1.43,1.835,1.038.381.624A.284.284,0,0,0,.012.808a.293.293,0,0,0,.208.366c1.407.392,2.838.786,4.291,1.131.069.021.138.021.208.046h.069a.364.364,0,0,0,.138-.046l.023-.023c.069-.023.092-.092.115-.164a.325.325,0,0,0-.208-.343" transform="translate(185.967 2748.582)" fill="#d8d5db"/>
    <path id="Path-11" data-name="Path" d="M4.779.9c-1.5.32-3.045.645-4.5.921H.234A.269.269,0,0,0,0,2.146a.3.3,0,0,0,.3.228H.35c1.038-.184,2.1-.392,3.161-.62.461-.092.923-.184,1.384-.3a.293.293,0,0,0,.231-.346A.29.29,0,0,0,4.779.9" transform="translate(241.117 2748.051)" fill="#d8d5db"/>
    <path id="Path-12" data-name="Path" d="M4.7.625C3.242,1.016,1.742,1.408.22,1.777a.276.276,0,0,0-.208.348.274.274,0,0,0,.277.228.091.091,0,0,0,.069-.021c1.523-.369,3.045-.76,4.5-1.131A.336.336,0,0,0,5.065.832.345.345,0,0,0,4.7.625" transform="translate(250.199 2746.137)" fill="#d8d5db"/>
    <path id="Path-13" data-name="Path" d="M4.665,1.8c-.508-.184-.992-.369-1.5-.576C2.219.854,1.319.442.419.027A.306.306,0,0,0,.027.163.3.3,0,0,0,.166.555c.969.463,1.984.875,3,1.292.415.184.854.343,1.292.507h.115a.3.3,0,0,0,.277-.184A.305.305,0,0,0,4.665,1.8" transform="translate(177.301 2745.931)" fill="#d8d5db"/>
    <path id="Path-14" data-name="Path" d="M4.626.424c-.3.092-.6.207-.923.3C2.573,1.071,1.4,1.44.22,1.783a.275.275,0,0,0-.208.348.288.288,0,0,0,.277.205H.381c1.154-.343,2.33-.689,3.438-1.037.346-.115.669-.207.992-.32A.3.3,0,0,0,5,.608.307.307,0,0,0,4.626.424" transform="translate(259.15 2743.758)" fill="#d8d5db"/>
    <path id="Path-15" data-name="Path" d="M4.34,2.513,4.179,2.4Q2.241,1.292.441.048A.278.278,0,0,0,.049.14.292.292,0,0,0,.118.532c1.2.8,2.469,1.612,3.761,2.373l.185.115A.322.322,0,0,0,4.2,3.04.263.263,0,0,0,4.456,2.9a.275.275,0,0,0-.115-.392" transform="translate(169.272 2741.326)" fill="#d8d5db"/>
    <path id="Path-16" data-name="Path" d="M4.559.223C3.106.755,1.629,1.262.2,1.766a.271.271,0,0,0-.185.348.272.272,0,0,0,.277.205A.191.191,0,0,0,.383,2.3C1.837,1.815,3.29,1.282,4.744.755A.284.284,0,0,0,4.928.386.278.278,0,0,0,4.559.223" transform="translate(267.984 2740.987)" fill="#d8d5db"/>
    <path id="Path-17" data-name="Path" d="M4.859.189A.269.269,0,0,0,4.49.028C3.083.6,1.629,1.2.176,1.755a.328.328,0,0,0-.162.392.3.3,0,0,0,.277.184,1,1,0,0,1,.115-.023C1.86,1.732,3.313,1.133,4.7.557A.271.271,0,0,0,4.859.189" transform="translate(276.682 2737.799)" fill="#d8d5db"/>
    <path id="Path-18" data-name="Path" d="M3.963,3.1c-.531-.412-1.061-.85-1.546-1.267C1.748,1.259,1.125.662.5.086a.293.293,0,0,0-.415,0A.289.289,0,0,0,.087.5c.738.693,1.5,1.384,2.307,2.052.392.343.784.691,1.2,1.011a.254.254,0,0,0,.185.071A.3.3,0,0,0,3.963,3.1" transform="translate(162.06 2735.528)" fill="#d8d5db"/>
    <path id="Path-19" data-name="Path" d="M4.78.168A.284.284,0,0,0,4.388.032C3.05.652,1.688,1.3.166,1.967a.27.27,0,0,0-.138.369.294.294,0,0,0,.254.184A.167.167,0,0,0,.4,2.472C1.919,1.8,3.3,1.184,4.641.537A.276.276,0,0,0,4.78.168" transform="translate(285.252 2734.039)" fill="#d8d5db"/>
    <path id="Path-20" data-name="Path" d="M3.379,3.716C2.364,2.565,1.4,1.346.518.125A.294.294,0,0,0,.1.056.287.287,0,0,0,.057.448C.864,1.6,1.764,2.728,2.687,3.808c.092.094.162.207.254.3a.331.331,0,0,0,.208.092.369.369,0,0,0,.208-.067.288.288,0,0,0,.069-.325.124.124,0,0,0-.046-.092" transform="translate(155.998 2728.556)" fill="#d8d5db"/>
    <path id="Path-21" data-name="Path" d="M4.655.147A.3.3,0,0,0,4.262.032C2.947.744,1.54,1.46.156,2.151a.251.251,0,0,0-.138.32c-.023.023,0,.048,0,.071A.313.313,0,0,0,.271,2.7.364.364,0,0,0,.41,2.658c.115-.071.254-.115.369-.187C2.071,1.852,3.317,1.184,4.539.539A.3.3,0,0,0,4.655.147" transform="translate(293.66 2729.893)" fill="#d8d5db"/>
    <path id="Path-22" data-name="Path" d="M4.547.148A.3.3,0,0,0,4.155.031c-.254.141-.485.3-.738.44C2.355,1.116,1.271,1.735.14,2.36a.269.269,0,0,0-.092.392A.263.263,0,0,0,.3,2.887.322.322,0,0,0,.44,2.866C1.8,2.083,3.163,1.3,4.455.54,4.478.517,4.5.491,4.524.471A.245.245,0,0,0,4.547.148" transform="translate(301.843 2725.354)" fill="#d8d5db"/>
    <path id="Path-23" data-name="Path" d="M4.432.2c0-.023-.023-.048-.023-.069A.3.3,0,0,0,4.016.039C3.924.085,3.855.152,3.763.2c-.646.435-1.338.9-2.007,1.311C1.225,1.879.671,2.227.14,2.573a.269.269,0,0,0-.092.392A.254.254,0,0,0,.279,3.1.428.428,0,0,0,.44,3.056c.808-.509,1.592-1.014,2.376-1.546.508-.32,1.015-.643,1.523-.988A.286.286,0,0,0,4.432.2" transform="translate(309.825 2720.418)" fill="#d8d5db"/>
    <path id="Path-24" data-name="Path" d="M4.254.126A.273.273,0,0,0,3.862.054C2.639.978,1.37,1.9.125,2.8a.268.268,0,0,0-.069.392A.318.318,0,0,0,.286,3.3a.289.289,0,0,0,.185-.044c1.246-.9,2.515-1.82,3.738-2.744A.249.249,0,0,0,4.254.126" transform="translate(317.523 2715.057)" fill="#d8d5db"/>
    <path id="Path-25" data-name="Path" d="M4.071.087A.32.32,0,0,0,3.656.067C2.526,1.034,1.349,2.022.1,3.038a.287.287,0,0,0-.046.392.318.318,0,0,0,.231.113.293.293,0,0,0,.185-.069c1.246-.988,2.446-2,3.553-2.969A.3.3,0,0,0,4.071.087" transform="translate(324.928 2709.241)" fill="#d8d5db"/>
    <path id="Path-26" data-name="Path" d="M3.837.088a.289.289,0,0,0-.415,0C2.36,1.148,1.229,2.23.1,3.29a.265.265,0,0,0-.023.392.251.251,0,0,0,.208.092A.359.359,0,0,0,.491,3.7C1.622,2.643,2.752,1.562,3.837.48a.265.265,0,0,0,0-.392" transform="translate(331.946 2702.954)" fill="#d8d5db"/>
    <path id="Path-27" data-name="Path" d="M3.537.076A.292.292,0,0,0,3.121.1C2.175,1.253,1.137,2.427.076,3.579A.29.29,0,0,0,.1,3.992a.254.254,0,0,0,.185.071.3.3,0,0,0,.208-.092C1.575,2.8,2.614,1.619,3.583.467A.287.287,0,0,0,3.537.076" transform="translate(338.498 2696.123)" fill="#d8d5db"/>
    <path id="Path-28" data-name="Path" d="M3.158.055a.27.27,0,0,0-.392.067C1.913,1.366.99,2.633.067,3.854a.294.294,0,0,0,.046.417A.435.435,0,0,0,.3,4.317.281.281,0,0,0,.528,4.2c.923-1.221,1.846-2.488,2.7-3.755A.264.264,0,0,0,3.158.055" transform="translate(344.46 2688.773)" fill="#d8d5db"/>
    <path id="Path-29" data-name="Path" d="M2.678.017a.34.34,0,0,0-.392.138C1.617,1.469.856,2.828.048,4.164a.3.3,0,0,0,.092.415A.322.322,0,0,0,.279,4.6a.263.263,0,0,0,.254-.136C1.363,3.1,2.124,1.745,2.817.409A.3.3,0,0,0,2.678.017" transform="translate(349.67 2680.842)" fill="#d8d5db"/>
    <path id="Path-30" data-name="Path" d="M2.126.014A.282.282,0,0,0,1.756.2C1.272,1.6.7,3.055.072,4.483a.288.288,0,0,0,.162.392A1,1,0,0,0,.349,4.9.294.294,0,0,0,.6,4.714c.623-1.451,1.2-2.9,1.684-4.331A.287.287,0,0,0,2.126.014" transform="translate(353.867 2672.345)" fill="#d8d5db"/>
    <path id="Path-31" data-name="Path" d="M2.122.01a.291.291,0,0,0-.346.205C1.453,1.692,1.061,3.187.646,4.71a.3.3,0,0,0,.208.346c.023,0,.046.023.069.023a.274.274,0,0,0,.277-.23c.415-1.5.808-3.018,1.154-4.492A.292.292,0,0,0,2.122.01" transform="translate(356.316 2663.434)" fill="#d8d5db"/>
    <path id="Path-32" data-name="Path" d="M2.136,0a.3.3,0,0,0-.323.253c-.208,1.52-.461,3.038-.738,4.559a.308.308,0,0,0,.231.348h.046a.318.318,0,0,0,.3-.233c.277-1.543.531-3.087.738-4.582A.327.327,0,0,0,2.136,0" transform="translate(357.965 2668.318)" fill="#d8d5db"/>
    <path id="Path-33" data-name="Path" d="M2.206.027a.271.271,0,0,0-.369.159C1.214,1.593.591,3.021.014,4.45a.3.3,0,0,0,.162.369.208.208,0,0,0,.115.023.27.27,0,0,0,.254-.184c.577-1.407,1.2-2.836,1.823-4.239A.287.287,0,0,0,2.206.027" transform="translate(155.741 2662.882)" fill="#d8d5db"/>
    <path id="Path-34" data-name="Path" d="M2.147,0a.337.337,0,0,0-.3.276c-.069,1.543-.162,3.087-.3,4.607A.283.283,0,0,0,1.8,5.2h.023A.279.279,0,0,0,2.1,4.927c.162-1.518.254-3.061.323-4.63C2.447.161,2.308.021,2.147,0" transform="translate(358.761 2659.107)" fill="#d8d5db"/>
    <path id="Path-35" data-name="Path" d="M2.45.032a.294.294,0,0,0-.392.115C1.365,1.53.673,2.935.027,4.315a.3.3,0,0,0,.138.392.192.192,0,0,0,.115.025A.25.25,0,0,0,.535,4.57C1.2,3.186,1.9,1.783,2.588.424A.3.3,0,0,0,2.45.032" transform="translate(159.489 2654.514)" fill="#d8d5db"/>
    <path id="Path-36" data-name="Path" d="M2.327.274A.289.289,0,0,0,1.75.3c.069,1.52.115,3.064.115,4.607a.3.3,0,0,0,.277.3.305.305,0,0,0,.3-.3c0-1.543-.046-3.11-.115-4.632" transform="translate(358.857 2649.87)" fill="#d8d5db"/>
    <path id="Path-37" data-name="Path" d="M2.662.032A.3.3,0,0,0,2.27.147C1.485,1.5.747,2.888.032,4.224a.268.268,0,0,0,.115.369.328.328,0,0,0,.138.046.269.269,0,0,0,.254-.161c.715-1.313,1.454-2.7,2.238-4.054A.3.3,0,0,0,2.662.032" transform="translate(163.66 2646.337)" fill="#d8d5db"/>
    <path id="Path-38" data-name="Path" d="M1.85.241A.257.257,0,0,0,1.527.01.269.269,0,0,0,1.3.33c.208,1.523.392,3.066.531,4.586a.282.282,0,0,0,.3.253H2.15a.256.256,0,0,0,.254-.3Q2.2,2.556,1.85.241" transform="translate(358.457 2640.646)" fill="#d8d5db"/>
    <path id="Path-39" data-name="Path" d="M2.84.048A.278.278,0,0,0,2.447.14C1.64,1.451.832,2.766.048,4.1a.274.274,0,0,0,.092.392.328.328,0,0,0,.138.046A.265.265,0,0,0,.533,4.4C1.317,3.066,2.124,1.753,2.932.44A.273.273,0,0,0,2.84.048" transform="translate(168.213 2638.373)" fill="#d8d5db"/>
    <path id="Path-40" data-name="Path" d="M2.343,4.6H2.32c-.254-1.451-.6-2.9-.946-4.379A.265.265,0,0,0,1.028.012.279.279,0,0,0,.82.357c.346,1.405.646,2.81.923,4.216.023.092.046.205.069.3a.274.274,0,0,0,.277.23h.046a.305.305,0,0,0,.231-.346c0-.046-.023-.115-.023-.161" transform="translate(357.18 2631.545)" fill="#d8d5db"/>
    <path id="Path-41" data-name="Path" d="M3.124.055a.272.272,0,0,0-.392.069L2.616.286C1.763,1.553.886,2.843.055,4.13a.3.3,0,0,0,.069.417.428.428,0,0,0,.162.046.254.254,0,0,0,.231-.138C1.37,3.165,2.224,1.873,3.1.608L3.216.447A.3.3,0,0,0,3.124.055" transform="translate(173.119 2630.465)" fill="#d8d5db"/>
    <path id="Path-42" data-name="Path" d="M2,3.585C1.653,2.433,1.284,1.3.915.2A.293.293,0,0,0,.545.014.3.3,0,0,0,.361.383q.658,1.9,1.246,3.87c.046.184.115.346.162.53a.29.29,0,0,0,.277.207h.092a.3.3,0,0,0,.185-.369C2.23,4.276,2.114,3.928,2,3.585" transform="translate(355.033 2622.65)" fill="#d8d5db"/>
    <path id="Path-43" data-name="Path" d="M3.141.055a.3.3,0,0,0-.415.069C1.849,1.368.949,2.612.049,3.9a.292.292,0,0,0,.069.392A.278.278,0,0,0,.3,4.34a.278.278,0,0,0,.231-.117C1.41,2.958,2.31,1.691,3.21.447A.288.288,0,0,0,3.141.055" transform="translate(178.432 2622.887)" fill="#d8d5db"/>
    <path id="Path-44" data-name="Path" d="M3.233.057A.318.318,0,0,0,2.818.1Q1.433,1.931.049,3.835a.292.292,0,0,0,.069.392A.249.249,0,0,0,.28,4.3a.325.325,0,0,0,.254-.138c.9-1.244,1.823-2.488,2.746-3.709A.287.287,0,0,0,3.233.057" transform="translate(183.83 2615.421)" fill="#d8d5db"/>
    <path id="Path-45" data-name="Path" d="M2.4,4.427c-.138-.346-.3-.714-.461-1.083-.069-.184-.162-.392-.254-.6C1.342,1.893.95,1.018.558.165A.3.3,0,0,0,.166.027.277.277,0,0,0,.027.4c.277.6.554,1.2.808,1.8.185.392.346.783.485,1.152A12.243,12.243,0,0,1,1.8,4.5l.069.138a.27.27,0,0,0,.254.184A.208.208,0,0,0,2.242,4.8a.279.279,0,0,0,.185-.3A.082.082,0,0,0,2.4,4.427" transform="translate(351.906 2614.068)" fill="#d8d5db"/>
    <path id="Path-46" data-name="Path" d="M3.35.055A.321.321,0,0,0,2.935.1C1.989,1.255,1.089,2.453.166,3.628.143,3.674.1,3.7.074,3.743a.274.274,0,0,0,.046.415.249.249,0,0,0,.162.069.262.262,0,0,0,.185-.069l.046-.046C1.481,2.868,2.427,1.67,3.4.472A.323.323,0,0,0,3.35.055" transform="translate(189.412 2608.096)" fill="#d8d5db"/>
    <path id="Path-47" data-name="Path" d="M2.794,4.2c-.3-.553-.577-1.083-.877-1.612C1.478,1.759,1.017.953.533.147A.3.3,0,0,0,.14.032.274.274,0,0,0,.048.423C.533,1.253.994,2.1,1.478,2.98c.254.484.531.988.784,1.5a.319.319,0,0,0,.254.138.269.269,0,0,0,.138-.025A.3.3,0,0,0,2.794,4.2" transform="translate(347.64 2605.863)" fill="#d8d5db"/>
    <path id="Path-48" data-name="Path" d="M3.479.057A.318.318,0,0,0,3.064.1c-.992,1.152-2.007,2.327-3,3.524a.291.291,0,0,0,.046.415A.262.262,0,0,0,.3,4.111.275.275,0,0,0,.5,4C1.495,2.8,2.51,1.623,3.5.471A.316.316,0,0,0,3.479.057" transform="translate(195.213 2600.978)" fill="#d8d5db"/>
    <path id="Path-49" data-name="Path" d="M3.141,3.948C2.31,2.658,1.433,1.391.534.124A.3.3,0,0,0,.118.055.317.317,0,0,0,.049.47c.9,1.244,1.8,2.511,2.63,3.8a.284.284,0,0,0,.231.115.22.22,0,0,0,.162-.046.265.265,0,0,0,.069-.392" transform="translate(342.586 2598.1)" fill="#d8d5db"/>
    <path id="Path-50" data-name="Path" d="M3.606.066A.286.286,0,0,0,3.214.09C2.152,1.2,1.114,2.347.076,3.5A.292.292,0,0,0,.1,3.913a.262.262,0,0,0,.185.069A.251.251,0,0,0,.491,3.89c1.038-1.152,2.1-2.3,3.138-3.409A.293.293,0,0,0,3.606.066" transform="translate(201.27 2594.08)" fill="#d8d5db"/>
    <path id="Path-51" data-name="Path" d="M3.5,3.66C2.529,2.439,1.514,1.241.5.09A.286.286,0,0,0,.107.066.274.274,0,0,0,.084.481C1.076,1.61,2.091,2.808,3.037,4.006a.321.321,0,0,0,.231.115.307.307,0,0,0,.185-.069A.287.287,0,0,0,3.5,3.66" transform="translate(336.807 2590.879)" fill="#d8d5db"/>
    <path id="Path-52" data-name="Path" d="M3.778.086a.266.266,0,0,0-.392,0C2.3,1.123,1.194,2.229.087,3.355a.267.267,0,0,0,0,.394.225.225,0,0,0,.208.092A.282.282,0,0,0,.5,3.749C1.586,2.643,2.694,1.538,3.778.5a.292.292,0,0,0,0-.415" transform="translate(207.604 2587.473)" fill="#d8d5db"/>
    <path id="Path-53" data-name="Path" d="M3.8,3.334C2.72,2.229,1.612,1.123.482.086a.293.293,0,0,0-.415,0A.316.316,0,0,0,.09.5c1.131,1.037,2.238,2.142,3.3,3.225a.293.293,0,0,0,.208.092.21.21,0,0,0,.185-.092A.287.287,0,0,0,3.8,3.334" transform="translate(330.363 2584.247)" fill="#d8d5db"/>
    <path id="Path-54" data-name="Path" d="M3.989.1A.294.294,0,0,0,3.573.076C2.743.79,1.912,1.5,1.1,2.241a6.283,6.283,0,0,0-.577.53c-.138.115-.3.23-.438.369a.316.316,0,0,0-.023.415A.41.41,0,0,0,.3,3.646a.262.262,0,0,0,.185-.069l.761-.691.831-.76C2.7,1.571,3.32,1.043,3.943.513A.319.319,0,0,0,3.989.1" transform="translate(214.268 2581.24)" fill="#d8d5db"/>
    <path id="Path-55" data-name="Path" d="M4.071,2.982C2.895,1.969,1.672,1,.472.057A.315.315,0,0,0,.057.1.31.31,0,0,0,.1.515c1.223.924,2.423,1.914,3.6,2.9a.262.262,0,0,0,.185.069.275.275,0,0,0,.208-.115.265.265,0,0,0-.023-.392" transform="translate(323.313 2578.265)" fill="#d8d5db"/>
    <path id="Path-56" data-name="Path" d="M4.187.113A.268.268,0,0,0,3.795.067C2.572.942,1.349,1.91.1,2.877a.317.317,0,0,0-.046.415.321.321,0,0,0,.231.115.307.307,0,0,0,.185-.069C1.7,2.347,2.918,1.4,4.141.527A.314.314,0,0,0,4.187.113" transform="translate(221.314 2575.467)" fill="#d8d5db"/>
    <path id="Path-57" data-name="Path" d="M4.316,2.618C3.047,1.719,1.755.867.44.038A.3.3,0,0,0,.048.13.269.269,0,0,0,.14.521C1.432,1.351,2.724,2.2,3.993,3.078a.22.22,0,0,0,.162.046.234.234,0,0,0,.231-.115.268.268,0,0,0-.069-.392" transform="translate(315.709 2572.963)" fill="#d8d5db"/>
    <path id="Path-58" data-name="Path" d="M4.439.125A.327.327,0,0,0,4.047.032C2.732.839,1.417,1.668.125,2.543a.3.3,0,0,0-.069.415.284.284,0,0,0,.231.115.334.334,0,0,0,.162-.046c1.292-.878,2.584-1.7,3.9-2.488A.323.323,0,0,0,4.439.125" transform="translate(228.768 2570.295)" fill="#d8d5db"/>
    <path id="Path-59" data-name="Path" d="M4.526,2.24C3.165,1.48,1.781.719.419.026A.306.306,0,0,0,.027.167.308.308,0,0,0,.166.556c1.361.693,2.722,1.407,4.061,2.168a.17.17,0,0,0,.138.046.265.265,0,0,0,.254-.138.269.269,0,0,0-.092-.392" transform="translate(307.654 2568.388)" fill="#d8d5db"/>
    <path id="Path-60" data-name="Path" d="M4.669.169A.279.279,0,0,0,4.277.031C2.916.676,1.508,1.388.147,2.127a.3.3,0,0,0-.115.392.269.269,0,0,0,.254.161.328.328,0,0,0,.138-.046C1.785,1.9,3.17,1.206,4.531.538A.277.277,0,0,0,4.669.169" transform="translate(236.682 2565.874)" fill="#d8d5db"/>
    <path id="Path-61" data-name="Path" d="M4.664,1.834C3.257,1.212,1.826.59.4.014A.3.3,0,0,0,.027.175.288.288,0,0,0,.188.567c1.43.553,2.861,1.175,4.245,1.8a.208.208,0,0,0,.115.023.32.32,0,0,0,.277-.161.287.287,0,0,0-.162-.392" transform="translate(299.211 2564.578)" fill="#d8d5db"/>
    <path id="Path-62" data-name="Path" d="M4.549.149C3.1.633,1.619,1.185.188,1.761a.268.268,0,0,0-.162.366.293.293,0,0,0,.254.187A.173.173,0,0,0,.4,2.291C1.826,1.715,3.28,1.162,4.733.679A.256.256,0,0,0,4.895.333.269.269,0,0,0,4.549.149" transform="translate(245.039 2562.255)" fill="#d8d5db"/>
    <path id="Path-63" data-name="Path" d="M4.811,1.781Q2.6,1.021.381.4A.3.3,0,0,0,.012.606.282.282,0,0,0,.22.952c1.454.415,2.953.875,4.407,1.382h.092A.3.3,0,0,0,5,2.15a.282.282,0,0,0-.185-.369" transform="translate(290.436 2561.198)" fill="#d8d5db"/>
    <path id="Path-64" data-name="Path" d="M4.742.75c-1.523.3-3.045.645-4.522,1.06a.264.264,0,0,0-.208.346.277.277,0,0,0,.277.207H.358c1.477-.392,3-.739,4.5-1.037A.312.312,0,0,0,5.088.98.328.328,0,0,0,4.742.75" transform="translate(253.82 2559.258)" fill="#d8d5db"/>
    <path id="Path-65" data-name="Path" d="M4.917,1.8C3.394,1.48,1.849,1.18.349.95A.312.312,0,0,0,0,1.18a.309.309,0,0,0,.254.346c1.5.23,3.022.507,4.545.829a.072.072,0,0,0,.046.023.318.318,0,0,0,.3-.23A.305.305,0,0,0,4.917,1.8" transform="translate(281.377 2558.666)" fill="#d8d5db"/>
    <path id="Path-66" data-name="Path" d="M4.917,1.425H4.894c-1.546.092-3.115.23-4.637.415A.287.287,0,0,0,0,2.162a.3.3,0,0,0,.3.253H.326C1.849,2.231,3.394,2.093,4.94,2a.269.269,0,0,0,.254-.3.3.3,0,0,0-.277-.274" transform="translate(262.896 2557.454)" fill="#d8d5db"/>
    <path id="Path-67" data-name="Path" d="M4.937,1.853C3.415,1.715,1.846,1.623.3,1.6a.288.288,0,1,0-.023.576c1.546.023,3.092.115,4.614.253h.023a.3.3,0,0,0,.3-.276.284.284,0,0,0-.277-.3" transform="translate(272.151 2557.21)" fill="#d8d5db"/>
  </g>
</svg>
