<svg xmlns="http://www.w3.org/2000/svg" width="42.703" height="42.703" viewBox="0 0 42.703 42.703">
  <g id="united-states" transform="translate(0)">
    <g id="Groupe_1846" data-name="Groupe 1846" transform="translate(0 3.285)">
      <rect id="Rectangle_499" data-name="Rectangle 499" width="42.703" height="3.284" transform="translate(0 6.569)" fill="#f5f5f5"/>
      <path id="Tracé_17401" data-name="Tracé 17401" d="M45.068,39.385H6.825A9.324,9.324,0,0,0,5.013,42.67H46.88A9.324,9.324,0,0,0,45.068,39.385Z" transform="translate(-4.595 -39.385)" fill="#f5f5f5"/>
      <rect id="Rectangle_500" data-name="Rectangle 500" width="42.703" height="3.284" transform="translate(0 13.139)" fill="#f5f5f5"/>
      <rect id="Rectangle_501" data-name="Rectangle 501" width="42.703" height="3.284" transform="translate(0 19.709)" fill="#f5f5f5"/>
      <rect id="Rectangle_502" data-name="Rectangle 502" width="42.703" height="3.284" transform="translate(0 26.279)" fill="#f5f5f5"/>
      <path id="Tracé_17402" data-name="Tracé 17402" d="M46.88,433.231H5.013a9.322,9.322,0,0,0,1.812,3.285H45.068A9.323,9.323,0,0,0,46.88,433.231Z" transform="translate(-4.595 -400.383)" fill="#f5f5f5"/>
    </g>
    <g id="Groupe_1847" data-name="Groupe 1847" transform="translate(0 0)">
      <path id="Tracé_17403" data-name="Tracé 17403" d="M57.868,0H33.847a9.32,9.32,0,0,0-7.111,3.285H64.979A9.32,9.32,0,0,0,57.868,0Z" transform="translate(-24.506 0)" fill="#ff4b55"/>
      <rect id="Rectangle_503" data-name="Rectangle 503" width="42.703" height="3.284" transform="translate(0 13.139)" fill="#ff4b55"/>
      <path id="Tracé_17404" data-name="Tracé 17404" d="M42.7,81.542a9.337,9.337,0,0,0-.418-2.772H.418A9.337,9.337,0,0,0,0,81.542v.513H42.7Z" transform="translate(0 -72.2)" fill="#ff4b55"/>
      <rect id="Rectangle_504" data-name="Rectangle 504" width="42.703" height="3.284" transform="translate(0 19.709)" fill="#ff4b55"/>
      <path id="Tracé_17405" data-name="Tracé 17405" d="M42.7,394.359v-.513H0v.513a9.338,9.338,0,0,0,.418,2.772H42.285A9.338,9.338,0,0,0,42.7,394.359Z" transform="translate(0 -360.998)" fill="#ff4b55"/>
      <path id="Tracé_17406" data-name="Tracé 17406" d="M64.979,472.615H26.736a9.32,9.32,0,0,0,7.111,3.285h24.02A9.32,9.32,0,0,0,64.979,472.615Z" transform="translate(-24.506 -433.197)" fill="#ff4b55"/>
      <rect id="Rectangle_505" data-name="Rectangle 505" width="42.703" height="3.284" transform="translate(0 26.279)" fill="#ff4b55"/>
    </g>
    <path id="Tracé_17407" data-name="Tracé 17407" d="M22.994,0H9.341A9.341,9.341,0,0,0,0,9.341V22.994H22.994Z" transform="translate(0 0)" fill="#41479b"/>
    <g id="Groupe_1848" data-name="Groupe 1848" transform="translate(2.169 2.002)">
      <path id="Tracé_17408" data-name="Tracé 17408" d="M29.7,28.845a.075.075,0,0,0,.116.084l.456-.326.456.326a.075.075,0,0,0,.116-.084l-.169-.534.451-.333a.075.075,0,0,0-.044-.136l-.56,0-.1-.287a9.385,9.385,0,0,0-.686.663l.131.1Z" transform="translate(-29.391 -27.255)" fill="#f5f5f5"/>
      <path id="Tracé_17409" data-name="Tracé 17409" d="M26.953,77.188l.177.531.56,0a.076.076,0,0,1,.044.136l-.451.333.169.534a.075.075,0,0,1-.116.084l-.456-.326-.456.326a.075.075,0,0,1-.116-.084l.169-.534-.451-.333a.075.075,0,0,1,.044-.136l.56,0,.177-.531A.076.076,0,0,1,26.953,77.188Z" transform="translate(-25.997 -72.704)" fill="#f5f5f5"/>
      <path id="Tracé_17410" data-name="Tracé 17410" d="M26.953,136.121l.177.531.56,0a.076.076,0,0,1,.044.136l-.451.333.169.534a.075.075,0,0,1-.116.084l-.456-.326-.456.326a.075.075,0,0,1-.116-.084l.169-.534-.451-.333a.075.075,0,0,1,.044-.136l.56,0,.177-.531A.076.076,0,0,1,26.953,136.121Z" transform="translate(-25.997 -126.722)" fill="#f5f5f5"/>
      <path id="Tracé_17411" data-name="Tracé 17411" d="M26.953,190.267l.177.531.56,0a.076.076,0,0,1,.044.136l-.451.333.169.534a.075.075,0,0,1-.116.084l-.456-.326-.456.326a.075.075,0,0,1-.116-.084l.169-.534-.451-.333a.075.075,0,0,1,.044-.136l.56,0,.177-.531A.076.076,0,0,1,26.953,190.267Z" transform="translate(-25.997 -176.352)" fill="#f5f5f5"/>
      <path id="Tracé_17412" data-name="Tracé 17412" d="M26.953,239.539l.177.531.56,0a.076.076,0,0,1,.044.136l-.451.333.169.534a.075.075,0,0,1-.116.084l-.456-.326-.456.326a.075.075,0,0,1-.116-.084l.169-.534-.451-.333a.075.075,0,0,1,.044-.136l.56,0,.177-.531A.076.076,0,0,1,26.953,239.539Z" transform="translate(-25.997 -221.515)" fill="#f5f5f5"/>
      <path id="Tracé_17413" data-name="Tracé 17413" d="M52.818,49.214l.177.531.56,0a.075.075,0,0,1,.044.136l-.451.333.169.534a.075.075,0,0,1-.116.084l-.455-.326-.456.326a.075.075,0,0,1-.116-.084l.169-.534-.45-.333a.075.075,0,0,1,.044-.136l.56,0,.177-.531A.076.076,0,0,1,52.818,49.214Z" transform="translate(-49.706 -47.064)" fill="#f5f5f5"/>
      <path id="Tracé_17414" data-name="Tracé 17414" d="M52.817,108.147l.177.531.56,0a.076.076,0,0,1,.044.136l-.451.333.169.534a.075.075,0,0,1-.116.084l-.456-.326-.456.326a.075.075,0,0,1-.116-.084l.169-.534-.45-.333a.075.075,0,0,1,.044-.136l.56,0,.177-.531A.076.076,0,0,1,52.817,108.147Z" transform="translate(-49.704 -101.081)" fill="#f5f5f5"/>
      <path id="Tracé_17415" data-name="Tracé 17415" d="M52.817,164.139l.177.531.56,0a.076.076,0,0,1,.044.136l-.451.333.169.534a.075.075,0,0,1-.116.084l-.456-.326-.456.326a.075.075,0,0,1-.116-.084l.169-.534-.45-.333a.075.075,0,0,1,.044-.136l.56,0,.177-.531A.076.076,0,0,1,52.817,164.139Z" transform="translate(-49.704 -152.403)" fill="#f5f5f5"/>
      <path id="Tracé_17416" data-name="Tracé 17416" d="M52.817,214.42l.177.531.56,0a.076.076,0,0,1,.044.136l-.451.333.169.534a.075.075,0,0,1-.116.084l-.456-.326-.456.326a.075.075,0,0,1-.116-.084l.169-.534-.45-.333a.075.075,0,0,1,.044-.136l.56,0,.177-.531A.076.076,0,0,1,52.817,214.42Z" transform="translate(-49.704 -198.491)" fill="#f5f5f5"/>
      <path id="Tracé_17417" data-name="Tracé 17417" d="M78.68,24.052l.177.531.56,0a.075.075,0,0,1,.044.136l-.451.333.169.534a.075.075,0,0,1-.116.084l-.456-.326-.456.326a.075.075,0,0,1-.116-.084l.169-.534-.45-.333a.075.075,0,0,1,.044-.136l.56,0,.177-.531A.076.076,0,0,1,78.68,24.052Z" transform="translate(-73.41 -24)" fill="#f5f5f5"/>
      <path id="Tracé_17418" data-name="Tracé 17418" d="M78.68,77.188l.177.531.56,0a.076.076,0,0,1,.044.136l-.451.333.169.534a.075.075,0,0,1-.116.084l-.456-.326-.456.326a.075.075,0,0,1-.116-.084l.169-.534-.45-.333a.075.075,0,0,1,.044-.136l.56,0,.177-.531A.076.076,0,0,1,78.68,77.188Z" transform="translate(-73.41 -72.704)" fill="#f5f5f5"/>
      <path id="Tracé_17419" data-name="Tracé 17419" d="M78.68,136.121l.177.531.56,0a.076.076,0,0,1,.044.136l-.451.333.169.534a.075.075,0,0,1-.116.084l-.456-.326-.456.326a.075.075,0,0,1-.116-.084l.169-.534-.45-.333a.076.076,0,0,1,.044-.136l.56,0,.177-.531A.076.076,0,0,1,78.68,136.121Z" transform="translate(-73.41 -126.722)" fill="#f5f5f5"/>
      <path id="Tracé_17420" data-name="Tracé 17420" d="M78.68,190.267l.177.531.56,0a.076.076,0,0,1,.044.136l-.451.333.169.534a.075.075,0,0,1-.116.084l-.456-.326-.456.326a.075.075,0,0,1-.116-.084l.169-.534-.45-.333a.075.075,0,0,1,.044-.136l.56,0,.177-.531A.076.076,0,0,1,78.68,190.267Z" transform="translate(-73.41 -176.352)" fill="#f5f5f5"/>
      <path id="Tracé_17421" data-name="Tracé 17421" d="M78.68,239.539l.177.531.56,0a.076.076,0,0,1,.044.136l-.451.333.169.534a.075.075,0,0,1-.116.084l-.456-.326-.456.326a.075.075,0,0,1-.116-.084l.169-.534-.45-.333a.075.075,0,0,1,.044-.136l.56,0,.177-.531A.076.076,0,0,1,78.68,239.539Z" transform="translate(-73.41 -221.515)" fill="#f5f5f5"/>
      <path id="Tracé_17422" data-name="Tracé 17422" d="M104.542,49.214l.177.531.56,0a.075.075,0,0,1,.044.136l-.45.333.169.534a.075.075,0,0,1-.116.084l-.456-.326-.456.326a.075.075,0,0,1-.116-.084l.169-.534-.451-.333a.075.075,0,0,1,.044-.136l.56,0,.177-.531A.076.076,0,0,1,104.542,49.214Z" transform="translate(-97.115 -47.064)" fill="#f5f5f5"/>
      <path id="Tracé_17423" data-name="Tracé 17423" d="M104.542,108.147l.177.531.56,0a.075.075,0,0,1,.044.136l-.45.333.169.534a.075.075,0,0,1-.116.084l-.456-.326-.456.326a.075.075,0,0,1-.116-.084l.169-.534-.451-.333a.075.075,0,0,1,.044-.136l.56,0,.177-.531A.076.076,0,0,1,104.542,108.147Z" transform="translate(-97.115 -101.081)" fill="#f5f5f5"/>
      <path id="Tracé_17424" data-name="Tracé 17424" d="M104.542,164.139l.177.531.56,0a.075.075,0,0,1,.044.136l-.45.333.169.534a.075.075,0,0,1-.116.084l-.456-.326-.456.326a.075.075,0,0,1-.116-.084l.169-.534-.451-.333a.075.075,0,0,1,.044-.136l.56,0,.177-.531A.076.076,0,0,1,104.542,164.139Z" transform="translate(-97.115 -152.403)" fill="#f5f5f5"/>
      <path id="Tracé_17425" data-name="Tracé 17425" d="M104.542,214.42l.177.531.56,0a.075.075,0,0,1,.044.136l-.45.333.169.534a.075.075,0,0,1-.116.084l-.456-.326-.456.326a.075.075,0,0,1-.116-.084l.169-.534-.451-.333a.075.075,0,0,1,.044-.136l.56,0,.177-.531A.076.076,0,0,1,104.542,214.42Z" transform="translate(-97.115 -198.491)" fill="#f5f5f5"/>
      <path id="Tracé_17426" data-name="Tracé 17426" d="M130.406,24.052l.177.531.56,0a.075.075,0,0,1,.044.136l-.45.333.169.534a.075.075,0,0,1-.116.084l-.456-.326-.456.326a.075.075,0,0,1-.116-.084l.169-.534-.45-.333a.075.075,0,0,1,.044-.136l.56,0,.177-.531A.076.076,0,0,1,130.406,24.052Z" transform="translate(-120.822 -24)" fill="#f5f5f5"/>
      <path id="Tracé_17427" data-name="Tracé 17427" d="M130.407,77.188l.177.531.56,0a.075.075,0,0,1,.044.136l-.45.333.169.534a.075.075,0,0,1-.116.084l-.456-.326-.456.326a.075.075,0,0,1-.116-.084l.169-.534-.45-.333a.075.075,0,0,1,.044-.136l.56,0,.177-.531A.076.076,0,0,1,130.407,77.188Z" transform="translate(-120.823 -72.704)" fill="#f5f5f5"/>
      <path id="Tracé_17428" data-name="Tracé 17428" d="M130.406,136.121l.177.531.56,0a.075.075,0,0,1,.044.136l-.45.333.169.534a.075.075,0,0,1-.116.084l-.456-.326-.456.326a.075.075,0,0,1-.116-.084l.169-.534-.45-.333a.076.076,0,0,1,.044-.136l.56,0,.177-.531A.076.076,0,0,1,130.406,136.121Z" transform="translate(-120.822 -126.722)" fill="#f5f5f5"/>
      <path id="Tracé_17429" data-name="Tracé 17429" d="M130.406,190.267l.177.531.56,0a.075.075,0,0,1,.044.136l-.45.333.169.534a.075.075,0,0,1-.116.084l-.456-.326-.456.326a.075.075,0,0,1-.116-.084l.169-.534-.45-.333a.075.075,0,0,1,.044-.136l.56,0,.177-.531A.076.076,0,0,1,130.406,190.267Z" transform="translate(-120.822 -176.352)" fill="#f5f5f5"/>
      <path id="Tracé_17430" data-name="Tracé 17430" d="M130.406,239.539l.177.531.56,0a.075.075,0,0,1,.044.136l-.45.333.169.534a.075.075,0,0,1-.116.084l-.456-.326-.456.326a.075.075,0,0,1-.116-.084l.169-.534-.45-.333a.075.075,0,0,1,.044-.136l.56,0,.177-.531A.076.076,0,0,1,130.406,239.539Z" transform="translate(-120.822 -221.515)" fill="#f5f5f5"/>
      <path id="Tracé_17431" data-name="Tracé 17431" d="M156.268,49.214l.177.531.56,0a.075.075,0,0,1,.044.136l-.451.333.169.534a.075.075,0,0,1-.116.084l-.456-.326-.456.326a.075.075,0,0,1-.116-.084l.169-.534-.45-.333a.075.075,0,0,1,.044-.136l.56,0,.177-.531A.076.076,0,0,1,156.268,49.214Z" transform="translate(-144.527 -47.064)" fill="#f5f5f5"/>
      <path id="Tracé_17432" data-name="Tracé 17432" d="M156.268,108.147l.177.531.56,0a.075.075,0,0,1,.044.136l-.451.333.169.534a.075.075,0,0,1-.116.084l-.456-.326-.456.326a.075.075,0,0,1-.116-.084l.169-.534-.45-.333a.075.075,0,0,1,.044-.136l.56,0,.177-.531A.076.076,0,0,1,156.268,108.147Z" transform="translate(-144.527 -101.081)" fill="#f5f5f5"/>
      <path id="Tracé_17433" data-name="Tracé 17433" d="M156.268,164.139l.177.531.56,0a.075.075,0,0,1,.044.136l-.451.333.169.534a.075.075,0,0,1-.116.084l-.456-.326-.456.326a.075.075,0,0,1-.116-.084l.169-.534-.45-.333a.075.075,0,0,1,.044-.136l.56,0,.177-.531A.076.076,0,0,1,156.268,164.139Z" transform="translate(-144.527 -152.403)" fill="#f5f5f5"/>
      <path id="Tracé_17434" data-name="Tracé 17434" d="M156.268,214.42l.177.531.56,0a.075.075,0,0,1,.044.136l-.451.333.169.534a.075.075,0,0,1-.116.084l-.456-.326-.456.326a.075.075,0,0,1-.116-.084l.169-.534-.45-.333a.075.075,0,0,1,.044-.136l.56,0,.177-.531A.076.076,0,0,1,156.268,214.42Z" transform="translate(-144.527 -198.491)" fill="#f5f5f5"/>
      <path id="Tracé_17435" data-name="Tracé 17435" d="M182.13,24.052l.177.531.56,0a.075.075,0,0,1,.044.136l-.451.333.169.534a.075.075,0,0,1-.116.084l-.456-.326-.456.326a.075.075,0,0,1-.116-.084l.169-.534-.451-.333a.075.075,0,0,1,.044-.136l.56,0,.177-.531A.076.076,0,0,1,182.13,24.052Z" transform="translate(-168.232 -24)" fill="#f5f5f5"/>
      <path id="Tracé_17436" data-name="Tracé 17436" d="M182.13,77.188l.177.531.56,0a.075.075,0,0,1,.044.136l-.451.333.169.534a.075.075,0,0,1-.116.084l-.456-.326-.456.326a.075.075,0,0,1-.116-.084l.169-.534-.451-.333a.075.075,0,0,1,.044-.136l.56,0,.177-.531A.076.076,0,0,1,182.13,77.188Z" transform="translate(-168.232 -72.704)" fill="#f5f5f5"/>
      <path id="Tracé_17437" data-name="Tracé 17437" d="M182.13,136.121l.177.531.56,0a.075.075,0,0,1,.044.136l-.451.333.169.534a.075.075,0,0,1-.116.084l-.456-.326-.456.326a.075.075,0,0,1-.116-.084l.169-.534-.451-.333a.076.076,0,0,1,.044-.136l.56,0,.177-.531A.076.076,0,0,1,182.13,136.121Z" transform="translate(-168.232 -126.722)" fill="#f5f5f5"/>
      <path id="Tracé_17438" data-name="Tracé 17438" d="M182.13,190.267l.177.531.56,0a.075.075,0,0,1,.044.136l-.451.333.169.534a.075.075,0,0,1-.116.084l-.456-.326-.456.326a.075.075,0,0,1-.116-.084l.169-.534-.451-.333a.075.075,0,0,1,.044-.136l.56,0,.177-.531A.076.076,0,0,1,182.13,190.267Z" transform="translate(-168.232 -176.352)" fill="#f5f5f5"/>
      <path id="Tracé_17439" data-name="Tracé 17439" d="M182.13,239.539l.177.531.56,0a.075.075,0,0,1,.044.136l-.451.333.169.534a.075.075,0,0,1-.116.084l-.456-.326-.456.326a.075.075,0,0,1-.116-.084l.169-.534-.451-.333a.075.075,0,0,1,.044-.136l.56,0,.177-.531A.076.076,0,0,1,182.13,239.539Z" transform="translate(-168.232 -221.515)" fill="#f5f5f5"/>
      <path id="Tracé_17440" data-name="Tracé 17440" d="M207.994,49.214l.177.531.56,0a.075.075,0,0,1,.044.136l-.451.333.169.534a.075.075,0,0,1-.116.084l-.456-.326-.456.326a.075.075,0,0,1-.116-.084l.169-.534-.451-.333a.075.075,0,0,1,.044-.136l.56,0,.177-.531A.076.076,0,0,1,207.994,49.214Z" transform="translate(-191.939 -47.064)" fill="#f5f5f5"/>
      <path id="Tracé_17441" data-name="Tracé 17441" d="M207.994,108.147l.177.531.56,0a.075.075,0,0,1,.044.136l-.451.333.169.534a.075.075,0,0,1-.116.084l-.456-.326-.456.326a.075.075,0,0,1-.116-.084l.169-.534-.451-.333a.075.075,0,0,1,.044-.136l.56,0,.177-.531A.076.076,0,0,1,207.994,108.147Z" transform="translate(-191.939 -101.081)" fill="#f5f5f5"/>
      <path id="Tracé_17442" data-name="Tracé 17442" d="M207.994,164.139l.177.531.56,0a.075.075,0,0,1,.044.136l-.451.333.169.534a.075.075,0,0,1-.116.084l-.456-.326-.456.326a.075.075,0,0,1-.116-.084l.169-.534-.451-.333a.075.075,0,0,1,.044-.136l.56,0,.177-.531A.076.076,0,0,1,207.994,164.139Z" transform="translate(-191.939 -152.403)" fill="#f5f5f5"/>
      <path id="Tracé_17443" data-name="Tracé 17443" d="M207.994,214.42l.177.531.56,0a.075.075,0,0,1,.044.136l-.451.333.169.534a.075.075,0,0,1-.116.084l-.456-.326-.456.326a.075.075,0,0,1-.116-.084l.169-.534-.451-.333a.075.075,0,0,1,.044-.136l.56,0,.177-.531A.076.076,0,0,1,207.994,214.42Z" transform="translate(-191.939 -198.491)" fill="#f5f5f5"/>
      <path id="Tracé_17444" data-name="Tracé 17444" d="M233.857,24.052l.177.531.56,0a.075.075,0,0,1,.044.136l-.451.333.169.534a.075.075,0,0,1-.116.084l-.456-.326-.456.326a.075.075,0,0,1-.116-.084l.169-.534-.451-.333a.075.075,0,0,1,.044-.136l.56,0,.177-.531A.076.076,0,0,1,233.857,24.052Z" transform="translate(-215.644 -24)" fill="#f5f5f5"/>
      <path id="Tracé_17445" data-name="Tracé 17445" d="M233.857,77.188l.177.531.56,0a.076.076,0,0,1,.044.136l-.451.333.169.534a.075.075,0,0,1-.116.084l-.456-.326-.456.326a.075.075,0,0,1-.116-.084l.169-.534-.451-.333a.075.075,0,0,1,.044-.136l.56,0,.177-.531A.076.076,0,0,1,233.857,77.188Z" transform="translate(-215.644 -72.704)" fill="#f5f5f5"/>
      <path id="Tracé_17446" data-name="Tracé 17446" d="M233.857,136.121l.177.531.56,0a.076.076,0,0,1,.044.136l-.451.333.169.534a.075.075,0,0,1-.116.084l-.456-.326-.456.326a.075.075,0,0,1-.116-.084l.169-.534-.451-.333a.075.075,0,0,1,.044-.136l.56,0,.177-.531A.076.076,0,0,1,233.857,136.121Z" transform="translate(-215.644 -126.722)" fill="#f5f5f5"/>
      <path id="Tracé_17447" data-name="Tracé 17447" d="M233.857,190.267l.177.531.56,0a.076.076,0,0,1,.044.136l-.451.333.169.534a.075.075,0,0,1-.116.084l-.456-.326-.456.326a.075.075,0,0,1-.116-.084l.169-.534-.451-.333a.075.075,0,0,1,.044-.136l.56,0,.177-.531A.076.076,0,0,1,233.857,190.267Z" transform="translate(-215.644 -176.352)" fill="#f5f5f5"/>
      <path id="Tracé_17448" data-name="Tracé 17448" d="M233.857,239.539l.177.531.56,0a.076.076,0,0,1,.044.136l-.451.333.169.534a.075.075,0,0,1-.116.084l-.456-.326-.456.326a.075.075,0,0,1-.116-.084l.169-.534-.451-.333a.075.075,0,0,1,.044-.136l.56,0,.177-.531A.076.076,0,0,1,233.857,239.539Z" transform="translate(-215.644 -221.515)" fill="#f5f5f5"/>
    </g>
  </g>
</svg>
