<svg xmlns="http://www.w3.org/2000/svg" xmlns:xlink="http://www.w3.org/1999/xlink" width="26" height="26" viewBox="0 0 26 26">
  <defs>
    <clipPath id="clip-path">
      <rect id="Rectangle_536" data-name="Rectangle 536" width="26" height="26" transform="translate(0.078 0.078)" fill="#fff" opacity="0"/>
    </clipPath>
  </defs>
  <g id="Layer_2" data-name="Layer 2" transform="translate(0.235 0.235)">
    <g id="briefcase" transform="translate(-0.313 -0.313)">
      <g id="Groupe_de_masques_70" data-name="Groupe de masques 70" clip-path="url(#clip-path)">
        <g id="Layer_2-2" data-name="Layer 2" transform="translate(0.078 0.078)">
          <g id="globe-2">
            <rect id="Rectangle_538" data-name="Rectangle 538" width="26" height="26" fill="#fff" opacity="0"/>
            <rect id="Rectangle_539" data-name="Rectangle 539" width="26" height="26" fill="#fff" opacity="0"/>
            <path id="Tracé_17464" data-name="Tracé 17464" d="M13,2.167A10.833,10.833,0,1,0,23.833,13,10.833,10.833,0,0,0,13,2.167Zm0,2.167a8.873,8.873,0,0,1,1.939.227,2.827,2.827,0,0,1-.845,1.083c-.238.184-.5.336-.758.5a4.94,4.94,0,0,0-2,1.809,7.031,7.031,0,0,0-.672,3.575c0,1.473,0,2.34-1.029,3.109-1.484,1.159-3.748.509-5.157-.076A9.024,9.024,0,0,1,4.333,13,8.667,8.667,0,0,1,13,4.333Zm5.3,15.513a7.356,7.356,0,0,0-.682-1.235c-.119-.173-.238-.347-.347-.531-.423-.737-.271-1.083.412-2.167l.108-.184a5.168,5.168,0,0,0,.628-2.633,5.872,5.872,0,0,1,.1-1.083c.173-.791,1.852-1.008,2.892-1.083a8.6,8.6,0,0,1-3.1,8.97Z" fill="#fff"/>
          </g>
        </g>
      </g>
    </g>
  </g>
</svg>
