<svg id="Layer_2" data-name="Layer 2" xmlns="http://www.w3.org/2000/svg" width="17.631" height="17.631" viewBox="0 0 17.631 17.631">
  <g id="pin">
    <rect id="Rectangle_533" data-name="Rectangle 533" width="17.631" height="17.631" fill="#fff" opacity="0"/>
    <circle id="Ellipse_41" data-name="Ellipse 41" cx="1.102" cy="1.102" r="1.102" transform="translate(7.714 5.877)" fill="#fff"/>
    <path id="Tracé_17454" data-name="Tracé 17454" d="M9.005,1.564A5.877,5.877,0,0,0,3.128,7.383c0,4.026,5.179,8.507,5.4,8.7a.735.735,0,0,0,.955,0c.257-.191,5.4-4.672,5.4-8.7A5.877,5.877,0,0,0,9.005,1.564Zm0,8.081a2.571,2.571,0,1,1,2.571-2.571A2.571,2.571,0,0,1,9.005,9.645Z" transform="translate(-0.189 -0.095)" fill="#fff"/>
  </g>
</svg>
