<svg xmlns="http://www.w3.org/2000/svg" width="171.497" height="35.285" viewBox="0 0 171.497 35.285">
  <g id="Groupe_1960" data-name="Groupe 1960" transform="translate(-1040.252 -3240.713)">
    <g id="Rectangle" transform="translate(1040.616 3241.077)" fill="#612840">
      <path d="M 155.4181060791016 33.09720230102539 L 15.34996509552002 33.09720230102539 C 7.690101146697998 33.09720230102539 1.458351373672485 27.53647613525391 1.458351373672485 20.70138549804688 L 1.458351373672485 13.85415744781494 C 1.458351373672485 11.37224864959717 2.254624128341675 9.079498291015625 3.892714977264404 6.844930171966553 C 6.318942070007324 3.521452903747559 10.70846462249756 1.458339214324951 15.34996509552002 1.458339214324951 L 155.4181060791016 1.458339214324951 C 163.0779876708984 1.458339214324951 169.3097381591797 7.019066333770752 169.3097381591797 13.85415744781494 L 169.3097381591797 20.70138549804688 C 169.3097381591797 27.53647613525391 163.0779876708984 33.09720230102539 155.4181060791016 33.09720230102539 Z" stroke="none"/>
      <path d="M 15.34996032714844 2.916675567626953 C 13.22109985351562 2.916675567626953 11.11592102050781 3.394508361816406 9.261978149414062 4.29850959777832 C 7.530288696289062 5.142913818359375 6.081512451171875 6.319984436035156 5.072250366210938 7.702486038208008 L 5.070556640625 7.704793930053711 L 5.068862915039062 7.707103729248047 C 3.620651245117188 9.682699203491211 2.916656494140625 11.69343757629395 2.916656494140625 13.85417556762695 L 2.916656494140625 20.70136642456055 C 2.916656494140625 26.73231887817383 8.49420166015625 31.63886642456055 15.34996032714844 31.63886642456055 L 155.4181060791016 31.63886642456055 C 162.2738494873047 31.63886642456055 167.8513946533203 26.73231887817383 167.8513946533203 20.70136642456055 L 167.8513946533203 13.85417556762695 C 167.8513946533203 7.823223114013672 162.2738494873047 2.916675567626953 155.4181060791016 2.916675567626953 L 15.34996032714844 2.916675567626953 M 15.34996032714844 7.62939453125e-06 L 155.4181060791016 7.62939453125e-06 C 163.8956451416016 7.62939453125e-06 170.7680511474609 6.202722549438477 170.7680511474609 13.85417556762695 L 170.7680511474609 20.70136642456055 C 170.7680511474609 28.35281753540039 163.8956451416016 34.55553436279297 155.4181060791016 34.55553436279297 L 15.34996032714844 34.55553436279297 C 6.872421264648438 34.55553436279297 -1.52587890625e-05 28.35281753540039 -1.52587890625e-05 20.70136642456055 L -1.52587890625e-05 13.85417556762695 C -1.52587890625e-05 11.03843688964844 0.930694580078125 8.418889999389648 2.716537475585938 5.982723236083984 C 5.275466918945312 2.477508544921875 9.99212646484375 7.62939453125e-06 15.34996032714844 7.62939453125e-06 Z" stroke="none" fill="#fff"/>
    </g>
    <rect id="Rectangle-2" data-name="Rectangle" width="170.768" height="34.556" rx="13.854" transform="translate(1040.616 3241.077)" fill="none" stroke="#612840" stroke-miterlimit="10" stroke-width="0.729"/>
  </g>
</svg>
