<svg xmlns="http://www.w3.org/2000/svg" width="169.633" height="35.285" viewBox="0 0 169.633 35.285">
  <g id="Groupe_1959" data-name="Groupe 1959" transform="translate(-635.183 -3240.713)">
    <g id="Rectangle" transform="translate(635.548 3241.077)" fill="#c39b82">
      <path d="M 153.7214202880859 33.09720230102539 L 15.18238162994385 33.09720230102539 C 7.614904403686523 33.09720230102539 1.458336114883423 27.53647613525391 1.458336114883423 20.70138549804688 L 1.458336114883423 13.85415744781494 C 1.458336114883423 11.36945247650146 2.246381521224976 9.074680328369141 3.867540597915649 6.838748455047607 C 6.26456356048584 3.51911187171936 10.59951782226562 1.458339214324951 15.18238162994385 1.458339214324951 L 153.7214202880859 1.458339214324951 C 161.2889099121094 1.458339214324951 167.4454650878906 7.019066333770752 167.4454650878906 13.85415744781494 L 167.4454650878906 20.70138549804688 C 167.4454650878906 27.53647613525391 161.2889099121094 33.09720230102539 153.7214202880859 33.09720230102539 Z" stroke="none"/>
      <path d="M 15.182373046875 2.916675567626953 C 13.08592224121094 2.916675567626953 11.01249694824219 3.392580032348633 9.18621826171875 4.292938232421875 C 7.477981567382812 5.135105133056641 6.0482177734375 6.309843063354492 5.051544189453125 7.690151214599609 L 5.049850463867188 7.692485809326172 L 5.048187255859375 7.694795608520508 C 3.613876342773438 9.672985076904297 2.916671752929688 11.68772315979004 2.916671752929688 13.85417556762695 L 2.916671752929688 20.70136642456055 C 2.916671752929688 26.73231887817383 8.419052124023438 31.63886642456055 15.182373046875 31.63886642456055 L 153.721435546875 31.63886642456055 C 160.4847564697266 31.63886642456055 165.9871368408203 26.73231887817383 165.9871368408203 20.70136642456055 L 165.9871368408203 13.85417556762695 C 165.9871368408203 7.823223114013672 160.4847564697266 2.916675567626953 153.721435546875 2.916675567626953 L 15.182373046875 2.916675567626953 M 15.182373046875 7.62939453125e-06 L 153.721435546875 7.62939453125e-06 C 162.1063995361328 7.62939453125e-06 168.90380859375 6.202722549438477 168.90380859375 13.85417556762695 L 168.90380859375 20.70136642456055 C 168.90380859375 28.35281753540039 162.1063995361328 34.55553436279297 153.721435546875 34.55553436279297 L 15.182373046875 34.55553436279297 C 6.797378540039062 34.55553436279297 0 28.35281753540039 0 20.70136642456055 L 0 13.85417556762695 C 0 11.03843688964844 0.9205169677734375 8.418889999389648 2.686874389648438 5.982723236083984 C 5.217880249023438 2.477508544921875 9.883041381835938 7.62939453125e-06 15.182373046875 7.62939453125e-06 Z" stroke="none" fill="#fff"/>
    </g>
    <rect id="Rectangle-2" data-name="Rectangle" width="168.904" height="34.556" rx="13.854" transform="translate(635.548 3241.077)" fill="none" stroke="#c39b82" stroke-miterlimit="10" stroke-width="0.729"/>
  </g>
</svg>
