<svg xmlns="http://www.w3.org/2000/svg" width="164.168" height="43.553" viewBox="0 0 164.168 43.553">
  <g id="Groupe_1911" data-name="Groupe 1911" transform="translate(-301.994 -362.198)">
    <path id="Tracé_17470" data-name="Tracé 17470" d="M390.478,415.871c-.548,0-1.023.019-1.494-.012a.636.636,0,0,1-.38-.26,16.384,16.384,0,0,0-11.164-6.678,16.2,16.2,0,0,0-18.256,13.259,16.434,16.434,0,0,0,3.05,13.335,15.887,15.887,0,0,0,12.362,6.4,16.356,16.356,0,0,0,12.525-4.888,12.626,12.626,0,0,0,1.344-1.571.846.846,0,0,1,.821-.4c.354.029.712.006,1.1.006-2.4,4.23-8.76,8.977-17.221,8a17.474,17.474,0,0,1-15.648-16.232c-.659-8.774,4.565-16.405,12.851-18.636A18,18,0,0,1,390.478,415.871Z" transform="translate(-50.731 -41.283)" fill="#fff"/>
    <path id="Tracé_17471" data-name="Tracé 17471" d="M627.715,438.134H629.1c.046.253.092.492.132.731a8.349,8.349,0,0,0,8.052,7.268c4.465.207,8.606-3.028,8.956-7.468.317-4.01-1.741-6.982-5.847-8.329-1.793-.588-3.623-1.06-5.434-1.595a10.827,10.827,0,0,1-3.791-1.945,7.546,7.546,0,0,1-2.747-6.506c.144-4.95,3.77-7.944,8.135-8.425a9.163,9.163,0,0,1,6.53,1.492,8.732,8.732,0,0,1,3.6,6.267c0,.028-.019.059-.046.138a9.509,9.509,0,0,1-1.107-.016c-.117-.013-.259-.2-.307-.334a25.2,25.2,0,0,0-.845-2.466,6.433,6.433,0,0,0-5.211-3.817,8.476,8.476,0,0,0-7.074,1.977c-2.792,2.46-3.608,8.674,1.1,11.308a23.841,23.841,0,0,0,4.977,1.834c1.289.383,2.608.693,3.852,1.189,3.337,1.33,5.369,3.722,5.629,7.4a9.236,9.236,0,0,1-4.482,8.953,10.287,10.287,0,0,1-12.544-1.157A9.559,9.559,0,0,1,627.715,438.134Z" transform="translate(-248.114 -44.398)" fill="#fff"/>
    <path id="Tracé_17472" data-name="Tracé 17472" d="M536.157,451.166c1.321,0,2.57.008,3.818-.005.342,0,.443.12.343.476h-4.143v7.782h-.886v-7.778h-.55c-3.242-.008-6.484-.007-9.725-.036-.486,0-.6.148-.6.611.023,2.2.01,4.405.01,6.608v.6h-.861v-.581c0-2.2-.014-4.405.011-6.608.005-.483-.1-.649-.619-.642-1.958.028-3.916,0-5.874,0-.172,0-.343-.019-.515-.029l-.026-.178a3.034,3.034,0,0,1,.537-.1c1.777-.019,3.554-.027,5.331-.039,1.154-.007,1.173-.008,1.148-1.137a14.224,14.224,0,0,0-.162-2.206,4.869,4.869,0,0,0-4.318-4.124,5.122,5.122,0,0,0-5.482,2.545,8.489,8.489,0,0,0-.856,4.828c.016.338-.018.678-.018,1.018q0,3.328,0,6.657v.581h-.884V443.316h.863v2.605a6.213,6.213,0,0,1,5.909-3.022,5.686,5.686,0,0,1,5.352,3.7,13.94,13.94,0,0,1,1.214-1.74,6.427,6.427,0,0,1,6.285-1.817,5.107,5.107,0,0,1,4.216,3.821,20.787,20.787,0,0,1,.467,3.058A10.564,10.564,0,0,1,536.157,451.166Zm-.859-.009c0-.3.018-.561,0-.818-.063-.768-.089-1.544-.225-2.3-.5-2.753-2.074-4.189-4.862-4.322a5.122,5.122,0,0,0-5.67,4.63c-.087.748-.048,1.509-.116,2.259-.047.514.144.638.633.632,3.254-.035,6.509-.042,9.764-.059C534.947,451.18,535.076,451.168,535.3,451.157Z" transform="translate(-163.484 -67.102)" fill="#fff"/>
    <path id="Tracé_17473" data-name="Tracé 17473" d="M872.8,441.155H855.817a8.738,8.738,0,0,0,.687,3.579,8.02,8.02,0,0,0,12.122,3.426,7.715,7.715,0,0,0,2.207-2.616c.393-.743.393-.743,1.32-.609a9.2,9.2,0,0,1-2.442,3.531,8.863,8.863,0,0,1-14.377-4.222,9.764,9.764,0,0,1,1.99-9.877,8.817,8.817,0,0,1,14.581,2.316A9.574,9.574,0,0,1,872.8,441.155Zm-.925-.938c0-3.564-3.457-8.061-8.248-7.821a8.059,8.059,0,0,0-7.723,7.821Z" transform="translate(-413.959 -58.766)" fill="#fff"/>
    <path id="Tracé_17474" data-name="Tracé 17474" d="M371.948,454.815A14.155,14.155,0,0,0,384.9,465.655a13.842,13.842,0,0,0,12.357-6.1c-.3-.129-.6-.245-.892-.384a7.613,7.613,0,0,1-4.539-6.253,7.809,7.809,0,0,1,3.52-7.976c4.407-2.913,11.512-1.1,12.661,5.331a8.014,8.014,0,0,1-6.592,9.539,8.834,8.834,0,0,1-3.235-.061.567.567,0,0,0-.685.273,14.181,14.181,0,0,1-8.636,5.8,14.334,14.334,0,0,1-17.053-10.441,2.542,2.542,0,0,1-.006-.579Zm26.424,4.147a7.517,7.517,0,0,0,2.932.066,7.2,7.2,0,0,0,5.938-8.043,6.8,6.8,0,0,0-4.253-5.945,7.214,7.214,0,0,0-7.473.8,7.038,7.038,0,0,0-2.9,6.149,7.232,7.232,0,0,0,4.749,6.724c.344.121.525.049.66-.261.39-.9.791-1.8,1.169-2.71.138-.331.221-.685.353-1.1.083.174.18.279.159.345C399.27,456.3,398.826,457.612,398.372,458.961Z" transform="translate(-61.194 -67.624)" fill="#fff"/>
    <path id="Tracé_17475" data-name="Tracé 17475" d="M705.262,441.138a9.618,9.618,0,1,1,9.614,9.548A9.358,9.358,0,0,1,705.262,441.138Zm9.615-8.67a8.649,8.649,0,1,0,8.634,8.671A8.468,8.468,0,0,0,714.877,432.468Z" transform="translate(-304.751 -58.829)" fill="#fff"/>
    <path id="Tracé_17476" data-name="Tracé 17476" d="M834.4,437.991l1.817-.612-.029-.16q-13.4-.027-26.8-.073l-.014-.231a4.82,4.82,0,0,1,.576-.07q5.751-.025,11.5-.04,7.725-.02,15.451-.025a2.444,2.444,0,0,0,1.4-.375c.694-.453,1.394-.9,2.092-1.346l-.052-.142-22.137-.123-.019-.238a5.708,5.708,0,0,1,.655-.076q9.652-.033,19.3-.057c.839,0,1.68.019,2.517-.022a1.319,1.319,0,0,0,.777-.306,15.774,15.774,0,0,0,.942-22.078,16.053,16.053,0,0,0-7.424-4.652c-.167-.05-.332-.109-.5-.164l.009-.167a2.033,2.033,0,0,1,.522.006,15.688,15.688,0,0,1,10.143,8.156,16.057,16.057,0,0,1-7.154,21.811,28.052,28.052,0,0,1-3.083,1.149,1.576,1.576,0,0,1-.5.007Z" transform="translate(-380.794 -40.913)" fill="#fff"/>
    <path id="Tracé_17477" data-name="Tracé 17477" d="M824.545,412.229H820.7V411.3H824.5v-7.469h.958v7.445h4.424v.928h-4.4v17.975h-.937Z" transform="translate(-389.059 -38.586)" fill="#fff"/>
    <path id="Tracé_17478" data-name="Tracé 17478" d="M792.725,431.61a1.537,1.537,0,0,1,.047.253c0,.639,0,1.278,0,1.939l-1.972.232-.019-.079a8.559,8.559,0,0,1,1.272-.263c.436-.026.523-.223.479-.592a4.972,4.972,0,0,1,0-.536,5.967,5.967,0,0,0-2.429.444,6.337,6.337,0,0,0-3.7,5.226,13.99,13.99,0,0,0-.11,1.966c-.01,3.222,0,6.444,0,9.666v.607h-.972V432.087h.969v3.128A6.93,6.93,0,0,1,792.725,431.61Z" transform="translate(-363.216 -58.874)" fill="#fff"/>
    <path id="Tracé_17479" data-name="Tracé 17479" d="M357.307,436.082a2.655,2.655,0,0,1-.507-.028,22.438,22.438,0,0,1-16.725-18.944,22.495,22.495,0,0,1,16.554-24.535,1.316,1.316,0,0,1,.709.006c-6.666,1.968-11.749,5.855-14.755,12.151a21.3,21.3,0,0,0-.026,19.083c2.993,6.307,8.066,10.221,14.777,12.078Z" transform="translate(-37.904 -30.331)" fill="#fff"/>
    <path id="Tracé_17480" data-name="Tracé 17480" d="M525.562,419.183c.218-.016.437-.046.656-.047q10.339-.046,20.678-.077a.716.716,0,0,0,.794-.523c.771-1.919,1.586-3.821,2.367-5.736.129-.315.277-.48.641-.442.34.036.687.008,1.086.008-.064.184-.1.322-.159.454-.876,2.11-1.761,4.216-2.621,6.331a.59.59,0,0,1-.656.424q-11.152-.078-22.3-.136a4.1,4.1,0,0,1-.489-.061Z" transform="translate(-173.499 -44.81)" fill="#fff"/>
    <path id="Tracé_17481" data-name="Tracé 17481" d="M404.315,532.407a19.353,19.353,0,0,1-12.979,3.786c-3.677-.214-9.03-2.237-10.15-3.924a2.884,2.884,0,0,1,.487.2,19.967,19.967,0,0,0,6.008,2.667,19.74,19.74,0,0,0,15.788-2.563,6.982,6.982,0,0,1,.77-.364Z" transform="translate(-68.059 -132.35)" fill="#fff"/>
    <path id="Tracé_17482" data-name="Tracé 17482" d="M555.3,509.857H531.771l-.019-.183a2.566,2.566,0,0,1,.467-.088q11.329-.064,22.658-.122C555.193,509.462,555.413,509.5,555.3,509.857Z" transform="translate(-178.026 -115.735)" fill="#fff"/>
    <path id="Tracé_17483" data-name="Tracé 17483" d="M562.9,517.524a3.089,3.089,0,0,1,.438-.064q7.134-.04,14.268-.062c.146,0,.293.145.44.223-.153.072-.305.207-.458.207q-7.109-.018-14.218-.062a4.408,4.408,0,0,1-.46-.049Z" transform="translate(-200.775 -121.53)" fill="#fff"/>
    <path id="Tracé_17484" data-name="Tracé 17484" d="M641.216,543.048a3.233,3.233,0,0,1,.586.18,11.873,11.873,0,0,0,5.867,1.427,12.682,12.682,0,0,0,5.383-1.42,1.179,1.179,0,0,1,.586-.082,11.044,11.044,0,0,1-12.467.055Z" transform="translate(-257.941 -140.264)" fill="#fff"/>
    <path id="Tracé_17485" data-name="Tracé 17485" d="M647.356,524.148a4.019,4.019,0,0,1,.531.348,6.192,6.192,0,0,0,4.448,1.69,6.322,6.322,0,0,0,4.173-1.767.874.874,0,0,1,.52-.213,5.79,5.79,0,0,1-4.976,2.456,6.041,6.041,0,0,1-4.795-2.335Z" transform="translate(-262.387 -126.46)" fill="#fff"/>
    <path id="Tracé_17486" data-name="Tracé 17486" d="M656.839,422.913a2,2,0,0,1-.425-.2,6.487,6.487,0,0,0-8.229,0,.634.634,0,0,1-.455.129,4.985,4.985,0,0,1,3.684-2.01,6.065,6.065,0,0,1,5.507,1.9Z" transform="translate(-262.732 -50.964)" fill="#fff"/>
    <path id="Tracé_17487" data-name="Tracé 17487" d="M828.182,491.149v-3.8l.146-.036a1.386,1.386,0,0,1,.143.391c.049,1.051.078,2.1.121,3.153C828.606,491.215,828.422,491.223,828.182,491.149Z" transform="translate(-394.526 -99.558)" fill="#fff"/>
    <path id="Tracé_17488" data-name="Tracé 17488" d="M519.422,489.41c0,1.21-.009,2.42.006,3.629,0,.33-.085.465-.5.334.142-1.31-.113-2.666.287-3.971Z" transform="translate(-168.663 -101.083)" fill="#fff"/>
    <path id="Tracé_17493" data-name="Tracé 17493" d="M565.557,450.959a4.281,4.281,0,0,1,6.9-.332,1.544,1.544,0,0,1,.148.424l-.15.062c-.059-.05-.122-.1-.176-.152a4.136,4.136,0,0,0-6.169-.17,3.074,3.074,0,0,1-.485.3Z" transform="translate(-202.716 -71.6)" fill="#fff"/>
    <path id="Tracé_17494" data-name="Tracé 17494" d="M869.868,443.558a6.45,6.45,0,0,1,9.881-.307,1.768,1.768,0,0,1,.217.461l-.131.066c-.407-.348-.793-.726-1.225-1.039a6.281,6.281,0,0,0-8.025.553,5.566,5.566,0,0,1-.622.417Z" transform="translate(-424.972 -65.784)" fill="#fff"/>
    <path id="Tracé_17495" data-name="Tracé 17495" d="M715.62,471.737c1.176,3.508,3.468,5.542,7.316,5.416,2.9-.1,5.061-2,6.22-5.334.23,1.045-1.022,3.173-2.325,4.2a7.028,7.028,0,0,1-7.823.632A6.591,6.591,0,0,1,715.62,471.737Z" transform="translate(-312.316 -88.181)" fill="#fff"/>
  </g>
</svg>
